<svg width="60" height="60" viewBox="0 0 60 60" fill="none" xmlns="http://www.w3.org/2000/svg">
<path d="M12.0627 44.875C14.5418 42.9792 17.3127 41.4844 20.3752 40.3906C23.4377 39.2969 26.646 38.75 30.0002 38.75C33.3543 38.75 36.5627 39.2969 39.6252 40.3906C42.6877 41.4844 45.4585 42.9792 47.9377 44.875C49.639 42.882 50.9637 40.6215 51.9116 38.0938C52.8595 35.566 53.3335 32.8681 53.3335 30C53.3335 23.5347 51.0609 18.0295 46.5158 13.4844C41.9706 8.93925 36.4654 6.66668 30.0002 6.66668C23.5349 6.66668 18.0297 8.93925 13.4845 13.4844C8.9394 18.0295 6.66683 23.5347 6.66683 30C6.66683 32.8681 7.14079 35.566 8.0887 38.0938C9.03662 40.6215 10.3613 42.882 12.0627 44.875ZM30.0002 32.9167C27.1321 32.9167 24.7137 31.9323 22.745 29.9636C20.7762 27.9948 19.7918 25.5764 19.7918 22.7083C19.7918 19.8403 20.7762 17.4219 22.745 15.4531C24.7137 13.4844 27.1321 12.5 30.0002 12.5C32.8682 12.5 35.2866 13.4844 37.2554 15.4531C39.2241 17.4219 40.2085 19.8403 40.2085 22.7083C40.2085 25.5764 39.2241 27.9948 37.2554 29.9636C35.2866 31.9323 32.8682 32.9167 30.0002 32.9167ZM30.0002 59.1667C25.9654 59.1667 22.1738 58.401 18.6252 56.8698C15.0766 55.3385 11.9897 53.2604 9.36475 50.6354C6.73975 48.0104 4.66162 44.9236 3.13037 41.375C1.59912 37.8264 0.833496 34.0347 0.833496 30C0.833496 25.9653 1.59912 22.1736 3.13037 18.625C4.66162 15.0764 6.73975 11.9896 9.36475 9.36459C11.9897 6.73959 15.0766 4.66147 18.6252 3.13022C22.1738 1.59897 25.9654 0.833344 30.0002 0.833344C34.0349 0.833344 37.8265 1.59897 41.3752 3.13022C44.9238 4.66147 48.0106 6.73959 50.6356 9.36459C53.2606 11.9896 55.3387 15.0764 56.8699 18.625C58.4012 22.1736 59.1668 25.9653 59.1668 30C59.1668 34.0347 58.4012 37.8264 56.8699 41.375C55.3387 44.9236 53.2606 48.0104 50.6356 50.6354C48.0106 53.2604 44.9238 55.3385 41.3752 56.8698C37.8265 58.401 34.0349 59.1667 30.0002 59.1667Z" fill="#E6E0E9"/>
</svg>
