<svg width="45" height="45" viewBox="0 0 45 45" fill="none" xmlns="http://www.w3.org/2000/svg">
<path d="M28.0191 39.54V6.45996C28.0191 5.90768 27.5714 5.45996 27.0191 5.45996H17.6599C17.1076 5.45996 16.6599 5.90768 16.6599 6.45996V39.54M28.0191 39.54L28.0159 19.3151C28.0159 18.7628 28.4636 18.315 29.0159 18.315H38.375C38.9273 18.315 39.375 18.7627 39.375 19.315V38.54C39.375 39.0922 38.9273 39.54 38.375 39.54H28.0191ZM28.0191 39.54H16.6599M16.6599 39.54V29.29C16.6599 28.7377 16.2122 28.29 15.6599 28.29H6.625C6.07272 28.29 5.625 28.7377 5.625 29.29V38.54C5.625 39.0922 6.07271 39.54 6.625 39.54H16.6599Z" stroke="white" stroke-width="2" stroke-linecap="round" stroke-linejoin="round"/>
</svg>
