<svg width="20" height="26" viewBox="0 0 20 26" fill="none" xmlns="http://www.w3.org/2000/svg">
<path d="M0 21.75V19.25H2.5V10.5C2.5 8.77083 3.02083 7.23958 4.0625 5.90625C5.10417 4.55208 6.45833 3.66667 8.125 3.25V2.375C8.125 1.85417 8.30208 1.41667 8.65625 1.0625C9.03125 0.6875 9.47917 0.5 10 0.5C10.5208 0.5 10.9583 0.6875 11.3125 1.0625C11.6875 1.41667 11.875 1.85417 11.875 2.375V3.25C13.5417 3.66667 14.8958 4.55208 15.9375 5.90625C16.9792 7.23958 17.5 8.77083 17.5 10.5V19.25H20V21.75H0ZM10 25.5C9.3125 25.5 8.71875 25.2604 8.21875 24.7812C7.73958 24.2812 7.5 23.6875 7.5 23H12.5C12.5 23.6875 12.25 24.2812 11.75 24.7812C11.2708 25.2604 10.6875 25.5 10 25.5ZM5 19.25H15V10.5C15 9.125 14.5104 7.94792 13.5313 6.96875C12.5521 5.98958 11.375 5.5 10 5.5C8.625 5.5 7.44792 5.98958 6.46875 6.96875C5.48958 7.94792 5 9.125 5 10.5V19.25Z" fill="#E6E0E9"/>
</svg>
