<svg width="26" height="26" viewBox="0 0 26 26" fill="none" xmlns="http://www.w3.org/2000/svg">
<path d="M9.5625 25.5L9.0625 21.5C8.79167 21.3958 8.53646 21.2708 8.29688 21.125C8.05729 20.9792 7.82292 20.8229 7.59375 20.6562L3.875 22.2188L0.4375 16.2812L3.65625 13.8438C3.63542 13.6979 3.625 13.5573 3.625 13.4219V12.5781C3.625 12.4427 3.63542 12.3021 3.65625 12.1562L0.4375 9.71875L3.875 3.78125L7.59375 5.34375C7.82292 5.17708 8.0625 5.02083 8.3125 4.875C8.5625 4.72917 8.8125 4.60417 9.0625 4.5L9.5625 0.5H16.4375L16.9375 4.5C17.2083 4.60417 17.4635 4.72917 17.7031 4.875C17.9427 5.02083 18.1771 5.17708 18.4062 5.34375L22.125 3.78125L25.5625 9.71875L22.3438 12.1562C22.3646 12.3021 22.375 12.4427 22.375 12.5781V13.4219C22.375 13.5573 22.3542 13.6979 22.3125 13.8438L25.5312 16.2812L22.0938 22.2188L18.4062 20.6562C18.1771 20.8229 17.9375 20.9792 17.6875 21.125C17.4375 21.2708 17.1875 21.3958 16.9375 21.5L16.4375 25.5H9.5625ZM11.75 23H14.2188L14.6562 19.6875C15.3021 19.5208 15.901 19.276 16.4531 18.9531C17.0052 18.6302 17.5104 18.2396 17.9688 17.7812L21.0625 19.0625L22.2812 16.9375L19.5938 14.9063C19.6979 14.6146 19.7708 14.3073 19.8125 13.9844C19.8542 13.6615 19.875 13.3333 19.875 13C19.875 12.6667 19.8542 12.3385 19.8125 12.0156C19.7708 11.6927 19.6979 11.3854 19.5938 11.0938L22.2812 9.0625L21.0625 6.9375L17.9688 8.25C17.5104 7.77083 17.0052 7.36979 16.4531 7.04688C15.901 6.72396 15.3021 6.47917 14.6562 6.3125L14.25 3H11.7812L11.3438 6.3125C10.6979 6.47917 10.099 6.72396 9.54688 7.04688C8.99479 7.36979 8.48958 7.76042 8.03125 8.21875L4.9375 6.9375L3.71875 9.0625L6.40625 11.0625C6.30208 11.375 6.22917 11.6875 6.1875 12C6.14583 12.3125 6.125 12.6458 6.125 13C6.125 13.3333 6.14583 13.6563 6.1875 13.9688C6.22917 14.2813 6.30208 14.5938 6.40625 14.9063L3.71875 16.9375L4.9375 19.0625L8.03125 17.75C8.48958 18.2292 8.99479 18.6302 9.54688 18.9531C10.099 19.276 10.6979 19.5208 11.3438 19.6875L11.75 23ZM13.0625 17.375C14.2708 17.375 15.3021 16.9479 16.1562 16.0938C17.0104 15.2396 17.4375 14.2083 17.4375 13C17.4375 11.7917 17.0104 10.7604 16.1562 9.90625C15.3021 9.05208 14.2708 8.625 13.0625 8.625C11.8333 8.625 10.7969 9.05208 9.95312 9.90625C9.10938 10.7604 8.6875 11.7917 8.6875 13C8.6875 14.2083 9.10938 15.2396 9.95312 16.0938C10.7969 16.9479 11.8333 17.375 13.0625 17.375Z" fill="#E6E0E9"/>
</svg>
